<svg xmlns="http://www.w3.org/2000/svg" viewBox="0 0 800 520" fill="none">
  <defs>
    <filter id="s2" x="-4%" y="-4%" width="108%" height="112%">
      <feDropShadow dx="0" dy="2" stdDeviation="3" flood-color="#2B4C7E" flood-opacity="0.12"/>
    </filter>
    <linearGradient id="navyGrad2" x1="0" y1="0" x2="1" y2="1">
      <stop offset="0%" stop-color="#2B4C7E"/>
      <stop offset="100%" stop-color="#1a3a66"/>
    </linearGradient>
    <linearGradient id="goldGrad2" x1="0" y1="0" x2="0" y2="1">
      <stop offset="0%" stop-color="#F39C12"/>
      <stop offset="100%" stop-color="#E67E22"/>
    </linearGradient>
    <linearGradient id="greenGrad2" x1="0" y1="0" x2="1" y2="1">
      <stop offset="0%" stop-color="#27AE60"/>
      <stop offset="100%" stop-color="#1e8c4d"/>
    </linearGradient>
    <marker id="arr2" viewBox="0 0 10 10" refX="9" refY="5" markerWidth="6" markerHeight="6" orient="auto">
      <path d="M 0 0 L 10 5 L 0 10 z" fill="#F39C12"/>
    </marker>
    <marker id="arr2g" viewBox="0 0 10 10" refX="9" refY="5" markerWidth="6" markerHeight="6" orient="auto">
      <path d="M 0 0 L 10 5 L 0 10 z" fill="#27AE60"/>
    </marker>
  </defs>

  <!-- Background -->
  <rect width="800" height="520" rx="12" fill="#F8FAFC"/>
  <rect x="0" y="0" width="800" height="4" rx="2" fill="url(#navyGrad2)"/>

  <!-- Title -->
  <text x="400" y="38" text-anchor="middle" font-family="Inter, Sarabun, sans-serif" font-size="18" font-weight="700" fill="#2B4C7E">AI-Powered Restaurant Stock Management</text>
  <text x="400" y="56" text-anchor="middle" font-family="Inter, Sarabun, sans-serif" font-size="11" fill="#64748B">Automated Sales Pipeline: 3 Channels to Unified Database to Actionable Insights</text>

  <!-- ===== ROW 1: DATA SOURCES ===== -->
  <text x="160" y="90" text-anchor="middle" font-family="Inter, Sarabun, sans-serif" font-size="10" font-weight="600" fill="#94A3B8" letter-spacing="2">DATA SOURCES</text>

  <!-- GrabFood -->
  <rect x="40" y="102" width="110" height="68" rx="10" fill="#FFFFFF" stroke="#27AE60" stroke-width="2" filter="url(#s2)"/>
  <rect x="40" y="102" width="110" height="22" rx="10" fill="#27AE60"/>
  <rect x="40" y="114" width="110" height="10" fill="#27AE60"/>
  <text x="95" y="118" text-anchor="middle" font-family="Inter, Sarabun, sans-serif" font-size="9" font-weight="700" fill="#FFFFFF">GrabFood</text>
  <text x="95" y="142" text-anchor="middle" font-family="Inter, Sarabun, sans-serif" font-size="9" fill="#475569">PDF Reports</text>
  <text x="95" y="156" text-anchor="middle" font-family="Inter, Sarabun, sans-serif" font-size="8" fill="#94A3B8">Daily invoices</text>

  <!-- LINE MAN -->
  <rect x="170" y="102" width="110" height="68" rx="10" fill="#FFFFFF" stroke="#27AE60" stroke-width="2" filter="url(#s2)"/>
  <rect x="170" y="102" width="110" height="22" rx="10" fill="#27AE60"/>
  <rect x="170" y="114" width="110" height="10" fill="#27AE60"/>
  <text x="225" y="118" text-anchor="middle" font-family="Inter, Sarabun, sans-serif" font-size="9" font-weight="700" fill="#FFFFFF">LINE MAN</text>
  <text x="225" y="142" text-anchor="middle" font-family="Inter, Sarabun, sans-serif" font-size="9" fill="#475569">CSV Balance</text>
  <text x="225" y="156" text-anchor="middle" font-family="Inter, Sarabun, sans-serif" font-size="8" fill="#94A3B8">Daily reports</text>

  <!-- POS -->
  <rect x="300" y="102" width="110" height="68" rx="10" fill="#FFFFFF" stroke="#27AE60" stroke-width="2" filter="url(#s2)"/>
  <rect x="300" y="102" width="110" height="22" rx="10" fill="#27AE60"/>
  <rect x="300" y="114" width="110" height="10" fill="#27AE60"/>
  <text x="355" y="118" text-anchor="middle" font-family="Inter, Sarabun, sans-serif" font-size="9" font-weight="700" fill="#FFFFFF">POS System</text>
  <text x="355" y="142" text-anchor="middle" font-family="Inter, Sarabun, sans-serif" font-size="9" fill="#475569">HTML Reports</text>
  <text x="355" y="156" text-anchor="middle" font-family="Inter, Sarabun, sans-serif" font-size="8" fill="#94A3B8">Walk-in sales</text>

  <!-- Arrows from sources down -->
  <line x1="95" y1="170" x2="95" y2="195" stroke="#F39C12" stroke-width="1.5" marker-end="url(#arr2)"/>
  <line x1="225" y1="170" x2="225" y2="195" stroke="#F39C12" stroke-width="1.5" marker-end="url(#arr2)"/>
  <line x1="355" y1="170" x2="355" y2="195" stroke="#F39C12" stroke-width="1.5" marker-end="url(#arr2)"/>

  <!-- ===== ROW 2: GMAIL IMAP (Wide box) ===== -->
  <rect x="40" y="200" width="370" height="52" rx="10" fill="url(#navyGrad2)" filter="url(#s2)"/>
  <!-- Email icon -->
  <rect x="58" y="214" width="22" height="16" rx="3" fill="none" stroke="#F39C12" stroke-width="1.5"/>
  <polyline points="58,214 69,224 80,214" fill="none" stroke="#F39C12" stroke-width="1.5"/>
  <text x="92" y="225" font-family="Inter, Sarabun, sans-serif" font-size="12" font-weight="700" fill="#FFFFFF">Gmail IMAP Auto-Fetch</text>
  <text x="92" y="242" font-family="Inter, Sarabun, sans-serif" font-size="9" fill="#B0C4DE">nntn.management@gmail.com | Automated daily extraction</text>

  <!-- Arrow down from Gmail -->
  <line x1="225" y1="252" x2="225" y2="280" stroke="#F39C12" stroke-width="2" marker-end="url(#arr2)"/>

  <!-- ===== ROW 3: PARSER ===== -->
  <rect x="120" y="285" width="210" height="52" rx="10" fill="#FFFFFF" stroke="#F39C12" stroke-width="2" filter="url(#s2)"/>
  <!-- Gear icon -->
  <circle cx="148" cy="311" r="12" fill="#FEF3C7" stroke="#F39C12" stroke-width="1.5"/>
  <circle cx="148" cy="311" r="4" fill="#F39C12"/>
  <text x="168" y="307" font-family="Inter, Sarabun, sans-serif" font-size="11" font-weight="600" fill="#1E293B">AI Parser Engine</text>
  <text x="168" y="323" font-family="Inter, Sarabun, sans-serif" font-size="8.5" fill="#64748B">PDF / CSV / HTML extraction</text>

  <!-- Arrow down from Parser -->
  <line x1="225" y1="337" x2="225" y2="365" stroke="#F39C12" stroke-width="2" marker-end="url(#arr2)"/>

  <!-- ===== ROW 4: DATABASE (Central) ===== -->
  <!-- Database shape -->
  <rect x="100" y="370" width="250" height="60" rx="10" fill="url(#navyGrad2)" filter="url(#s2)"/>
  <!-- DB icon (cylinder) -->
  <ellipse cx="133" cy="392" rx="14" ry="7" fill="none" stroke="#F39C12" stroke-width="1.5"/>
  <line x1="119" y1="392" x2="119" y2="410" stroke="#F39C12" stroke-width="1.5"/>
  <line x1="147" y1="392" x2="147" y2="410" stroke="#F39C12" stroke-width="1.5"/>
  <ellipse cx="133" cy="410" rx="14" ry="7" fill="none" stroke="#F39C12" stroke-width="1.5"/>
  <text x="160" y="397" font-family="Inter, Sarabun, sans-serif" font-size="12" font-weight="700" fill="#FFFFFF">SQLite Database</text>
  <text x="160" y="414" font-family="Inter, Sarabun, sans-serif" font-size="9" fill="#B0C4DE">nntn.db | 28 tables | Unified schema</text>

  <!-- ===== RIGHT SIDE: ANALYSIS + REPORTS ===== -->
  <!-- Arrow from DB to Analysis -->
  <line x1="350" y1="400" x2="430" y2="400" stroke="#F39C12" stroke-width="2" marker-end="url(#arr2)"/>

  <text x="620" y="90" text-anchor="middle" font-family="Inter, Sarabun, sans-serif" font-size="10" font-weight="600" fill="#94A3B8" letter-spacing="2">INTELLIGENCE LAYER</text>

  <!-- Analysis Box -->
  <rect x="440" y="102" width="320" height="155" rx="12" fill="#FFFFFF" stroke="#2B4C7E" stroke-width="1.5" filter="url(#s2)"/>
  <rect x="440" y="102" width="320" height="30" rx="12" fill="url(#navyGrad2)"/>
  <rect x="440" y="120" width="320" height="12" fill="url(#navyGrad2)"/>
  <text x="600" y="122" text-anchor="middle" font-family="Inter, Sarabun, sans-serif" font-size="11" font-weight="700" fill="#FFFFFF">AI Analysis Engine</text>

  <!-- Analysis items -->
  <rect x="458" y="144" width="135" height="40" rx="6" fill="#EBF5FF" stroke="#2B4C7E" stroke-width="0.8"/>
  <text x="525" y="161" text-anchor="middle" font-family="Inter, Sarabun, sans-serif" font-size="9" font-weight="600" fill="#2B4C7E">Cost Analysis</text>
  <text x="525" y="175" text-anchor="middle" font-family="Inter, Sarabun, sans-serif" font-size="7.5" fill="#64748B">Per-dish cost breakdown</text>

  <rect x="607" y="144" width="135" height="40" rx="6" fill="#ECFDF5" stroke="#27AE60" stroke-width="0.8"/>
  <text x="674" y="161" text-anchor="middle" font-family="Inter, Sarabun, sans-serif" font-size="9" font-weight="600" fill="#27AE60">Usage Variance</text>
  <text x="674" y="175" text-anchor="middle" font-family="Inter, Sarabun, sans-serif" font-size="7.5" fill="#64748B">Should-use vs actual</text>

  <rect x="458" y="194" width="135" height="40" rx="6" fill="#FEF3C7" stroke="#F39C12" stroke-width="0.8"/>
  <text x="525" y="211" text-anchor="middle" font-family="Inter, Sarabun, sans-serif" font-size="9" font-weight="600" fill="#E67E22">Profit Margins</text>
  <text x="525" y="225" text-anchor="middle" font-family="Inter, Sarabun, sans-serif" font-size="7.5" fill="#64748B">GP per channel</text>

  <rect x="607" y="194" width="135" height="40" rx="6" fill="#FEE2E2" stroke="#EF4444" stroke-width="0.8"/>
  <text x="674" y="211" text-anchor="middle" font-family="Inter, Sarabun, sans-serif" font-size="9" font-weight="600" fill="#DC2626">Anomaly Detection</text>
  <text x="674" y="225" text-anchor="middle" font-family="Inter, Sarabun, sans-serif" font-size="7.5" fill="#64748B">Spike/drop alerts</text>

  <!-- Arrow from Analysis to Reports -->
  <line x1="600" y1="257" x2="600" y2="285" stroke="#27AE60" stroke-width="2" marker-end="url(#arr2g)"/>

  <!-- Reports section -->
  <rect x="440" y="290" width="320" height="145" rx="12" fill="#FFFFFF" stroke="#27AE60" stroke-width="1.5" filter="url(#s2)"/>
  <rect x="440" y="290" width="320" height="30" rx="12" fill="url(#greenGrad2)"/>
  <rect x="440" y="308" width="320" height="12" fill="url(#greenGrad2)"/>
  <text x="600" y="310" text-anchor="middle" font-family="Inter, Sarabun, sans-serif" font-size="11" font-weight="700" fill="#FFFFFF">Actionable Outputs</text>

  <!-- Report items -->
  <rect x="458" y="332" width="140" height="38" rx="6" fill="#ECFDF5"/>
  <text x="528" y="349" text-anchor="middle" font-family="Inter, Sarabun, sans-serif" font-size="9" font-weight="600" fill="#1E293B">Daily Dashboard</text>
  <text x="528" y="362" text-anchor="middle" font-family="Inter, Sarabun, sans-serif" font-size="7.5" fill="#64748B">Revenue, orders, mix</text>

  <rect x="610" y="332" width="140" height="38" rx="6" fill="#ECFDF5"/>
  <text x="680" y="349" text-anchor="middle" font-family="Inter, Sarabun, sans-serif" font-size="9" font-weight="600" fill="#1E293B">Inventory Alerts</text>
  <text x="680" y="362" text-anchor="middle" font-family="Inter, Sarabun, sans-serif" font-size="7.5" fill="#64748B">Low stock, reorder</text>

  <rect x="458" y="380" width="140" height="38" rx="6" fill="#ECFDF5"/>
  <text x="528" y="397" text-anchor="middle" font-family="Inter, Sarabun, sans-serif" font-size="9" font-weight="600" fill="#1E293B">Variance Reports</text>
  <text x="528" y="410" text-anchor="middle" font-family="Inter, Sarabun, sans-serif" font-size="7.5" fill="#64748B">Waste tracking</text>

  <rect x="610" y="380" width="140" height="38" rx="6" fill="#ECFDF5"/>
  <text x="680" y="397" text-anchor="middle" font-family="Inter, Sarabun, sans-serif" font-size="9" font-weight="600" fill="#1E293B">Slack Notifications</text>
  <text x="680" y="410" text-anchor="middle" font-family="Inter, Sarabun, sans-serif" font-size="7.5" fill="#64748B">Real-time alerts</text>

  <!-- Connection line from DB to Analysis (curved) -->
  <path d="M 350 390 Q 395 340 440 200" stroke="#F39C12" stroke-width="2" stroke-dasharray="6,3" fill="none" marker-end="url(#arr2)"/>

  <!-- ===== Bottom Stats Bar ===== -->
  <rect x="40" y="460" width="720" height="44" rx="8" fill="url(#navyGrad2)" filter="url(#s2)"/>
  <text x="130" y="484" text-anchor="middle" font-family="Inter, Sarabun, sans-serif" font-size="9" fill="#B0C4DE">3 Channels</text>
  <text x="130" y="496" text-anchor="middle" font-family="Inter, Sarabun, sans-serif" font-size="11" font-weight="700" fill="#F39C12">GrabFood + LINE MAN + POS</text>

  <line x1="260" y1="470" x2="260" y2="498" stroke="#3D5F8C" stroke-width="1"/>

  <text x="340" y="484" text-anchor="middle" font-family="Inter, Sarabun, sans-serif" font-size="9" fill="#B0C4DE">Auto-Processed</text>
  <text x="340" y="496" text-anchor="middle" font-family="Inter, Sarabun, sans-serif" font-size="11" font-weight="700" fill="#F39C12">PDF + CSV + HTML</text>

  <line x1="420" y1="470" x2="420" y2="498" stroke="#3D5F8C" stroke-width="1"/>

  <text x="520" y="484" text-anchor="middle" font-family="Inter, Sarabun, sans-serif" font-size="9" fill="#B0C4DE">Database</text>
  <text x="520" y="496" text-anchor="middle" font-family="Inter, Sarabun, sans-serif" font-size="11" font-weight="700" fill="#F39C12">28 Tables | SQLite</text>

  <line x1="620" y1="470" x2="620" y2="498" stroke="#3D5F8C" stroke-width="1"/>

  <text x="700" y="484" text-anchor="middle" font-family="Inter, Sarabun, sans-serif" font-size="9" fill="#B0C4DE">Zero Manual Entry</text>
  <text x="700" y="496" text-anchor="middle" font-family="Inter, Sarabun, sans-serif" font-size="11" font-weight="700" fill="#27AE60">Fully Automated</text>
</svg>