<svg xmlns="http://www.w3.org/2000/svg" viewBox="0 0 1200 630" font-family="'Kanit', 'Inter', sans-serif">
  <defs>
    <linearGradient id="bg-22" x1="0" y1="0" x2="1200" y2="630" gradientUnits="userSpaceOnUse">
      <stop offset="0%" stop-color="#0a0a0a"/>
      <stop offset="100%" stop-color="#1a1a2e"/>
    </linearGradient>
  </defs>

  <!-- Background -->
  <rect width="1200" height="630" fill="url(#bg-22)"/>

  <!-- Network decoration -->
  <circle cx="956" cy="108" r="3" fill="#27AE60" opacity="0.15"/><circle cx="1007" cy="133" r="3" fill="#27AE60" opacity="0.15"/><line x1="956" y1="108" x2="1007" y2="133" stroke="#27AE60" stroke-width="0.5" opacity="0.1"/><circle cx="988" cy="124" r="3" fill="#27AE60" opacity="0.15"/><line x1="1007" y1="133" x2="988" y2="124" stroke="#27AE60" stroke-width="0.5" opacity="0.1"/><circle cx="1086" cy="173" r="3" fill="#27AE60" opacity="0.15"/><line x1="988" y1="124" x2="1086" y2="173" stroke="#27AE60" stroke-width="0.5" opacity="0.1"/><circle cx="923" cy="91" r="3" fill="#27AE60" opacity="0.15"/><line x1="1086" y1="173" x2="923" y2="91" stroke="#27AE60" stroke-width="0.5" opacity="0.1"/>

  <!-- Category badge -->
  <rect x="50" y="50" width="10" height="50" rx="5" fill="#27AE60"/>

  <!-- Title -->
  <text x="80" y="80" fill="#ffffff" font-size="26" font-weight="700">AI Maturity</text>
  <text x="80" y="115" fill="#aaaaaa" font-size="16">Self-Assessment Checklist</text>

  <!-- Divider -->
  <line x1="80" y1="140" x2="400" y2="140" stroke="#27AE60" stroke-width="2" opacity="0.5"/>

  <!-- Main visual -->
  
            <rect x="250" y="310" width="700" height="38" rx="8" fill="#1e1e3a" stroke="#333" stroke-width="1"/>
            <circle cx="280" cy="329" r="10" fill="#27AE60" opacity="0.3"/>
            <text x="280" y="334" text-anchor="middle" fill="#27AE60" font-size="12">&#x2714;</text>
            <rect x="305" y="323" width="356" height="10" rx="4" fill="#444"/>
            <rect x="250" y="360" width="700" height="38" rx="8" fill="#1e1e3a" stroke="#333" stroke-width="1"/>
            <circle cx="280" cy="379" r="10" fill="#27AE60" opacity="0.3"/>
            <text x="280" y="384" text-anchor="middle" fill="#27AE60" font-size="12">&#x2714;</text>
            <rect x="305" y="373" width="428" height="10" rx="4" fill="#444"/>
            <rect x="250" y="410" width="700" height="38" rx="8" fill="#1e1e3a" stroke="#333" stroke-width="1"/>
            <circle cx="280" cy="429" r="10" fill="#27AE60" opacity="0.3"/>
            <text x="280" y="434" text-anchor="middle" fill="#27AE60" font-size="12">&#x2714;</text>
            <rect x="305" y="423" width="314" height="10" rx="4" fill="#444"/>
            <rect x="250" y="460" width="700" height="38" rx="8" fill="#1e1e3a" stroke="#333" stroke-width="1"/>
            <circle cx="280" cy="479" r="10" fill="#27AE60" opacity="0.3"/>
            <text x="280" y="484" text-anchor="middle" fill="#27AE60" font-size="12">&#x2714;</text>
            <rect x="305" y="473" width="407" height="10" rx="4" fill="#444"/>

  <!-- Footer -->
  <line x1="80" y1="590" x2="1120" y2="590" stroke="#222" stroke-width="0.5"/>
  <text x="600" y="615" text-anchor="middle" fill="#444" font-size="11">DopeLab.Studio — ink.dopelab.studio</text>
</svg>