<svg xmlns="http://www.w3.org/2000/svg" viewBox="0 0 1200 630" font-family="'Kanit', 'Inter', sans-serif">
  <defs>
    <linearGradient id="bg-50" x1="0" y1="0" x2="1200" y2="630" gradientUnits="userSpaceOnUse">
      <stop offset="0%" stop-color="#0a0a0a"/>
      <stop offset="100%" stop-color="#1a1a2e"/>
    </linearGradient>
  </defs>

  <!-- Background -->
  <rect width="1200" height="630" fill="url(#bg-50)"/>

  <!-- Network decoration -->
  <circle cx="1017" cy="138" r="3" fill="#FF6B35" opacity="0.15"/><circle cx="914" cy="87" r="3" fill="#FF6B35" opacity="0.15"/><line x1="1017" y1="138" x2="914" y2="87" stroke="#FF6B35" stroke-width="0.5" opacity="0.1"/><circle cx="926" cy="93" r="3" fill="#FF6B35" opacity="0.15"/><line x1="914" y1="87" x2="926" y2="93" stroke="#FF6B35" stroke-width="0.5" opacity="0.1"/><circle cx="903" cy="81" r="3" fill="#FF6B35" opacity="0.15"/><line x1="926" y1="93" x2="903" y2="81" stroke="#FF6B35" stroke-width="0.5" opacity="0.1"/><circle cx="1000" cy="130" r="3" fill="#FF6B35" opacity="0.15"/><line x1="903" y1="81" x2="1000" y2="130" stroke="#FF6B35" stroke-width="0.5" opacity="0.1"/>

  <!-- Category badge -->
  <rect x="50" y="50" width="10" height="50" rx="5" fill="#FF6B35"/>

  <!-- Title -->
  <text x="80" y="80" fill="#ffffff" font-size="26" font-weight="700">OpenAI investors breakdown:</text>
  <text x="80" y="115" fill="#aaaaaa" font-size="16">Amazon, SoftBank, Nvidia</text>

  <!-- Divider -->
  <line x1="80" y1="140" x2="400" y2="140" stroke="#FF6B35" stroke-width="2" opacity="0.5"/>

  <!-- Main visual -->
  
            <rect x="200" y="273" width="80" height="157" rx="6" fill="#FF6B35" opacity="1.0"/>
            <rect x="330" y="332" width="80" height="98" rx="6" fill="#FF6B35" opacity="0.8"/>
            <rect x="460" y="361" width="80" height="69" rx="6" fill="#FF6B35" opacity="0.7"/>
            <rect x="590" y="376" width="80" height="54" rx="6" fill="#FF6B35" opacity="0.7"/>
            <rect x="720" y="323" width="80" height="107" rx="6" fill="#FF6B35" opacity="0.8"/>
            <rect x="850" y="297" width="80" height="133" rx="6" fill="#FF6B35" opacity="0.9"/>
        <line x1="180" y1="430" x2="1000" y2="430" stroke="#444" stroke-width="1"/>

  <!-- Footer -->
  <line x1="80" y1="590" x2="1120" y2="590" stroke="#222" stroke-width="0.5"/>
  <text x="600" y="615" text-anchor="middle" fill="#444" font-size="11">DopeLab.Studio — ink.dopelab.studio</text>
</svg>