<svg xmlns="http://www.w3.org/2000/svg" viewBox="0 0 1200 630" font-family="'Kanit', 'Inter', sans-serif">
  <defs>
    <linearGradient id="bg-49" x1="0" y1="0" x2="1200" y2="630" gradientUnits="userSpaceOnUse">
      <stop offset="0%" stop-color="#0a0a0a"/>
      <stop offset="100%" stop-color="#1a1a2e"/>
    </linearGradient>
  </defs>

  <!-- Background -->
  <rect width="1200" height="630" fill="url(#bg-49)"/>

  <!-- Network decoration -->
  <circle cx="939" cy="99" r="3" fill="#27AE60" opacity="0.15"/><circle cx="979" cy="119" r="3" fill="#27AE60" opacity="0.15"/><line x1="939" y1="99" x2="979" y2="119" stroke="#27AE60" stroke-width="0.5" opacity="0.1"/><circle cx="984" cy="122" r="3" fill="#27AE60" opacity="0.15"/><line x1="979" y1="119" x2="984" y2="122" stroke="#27AE60" stroke-width="0.5" opacity="0.1"/><circle cx="960" cy="110" r="3" fill="#27AE60" opacity="0.15"/><line x1="984" y1="122" x2="960" y2="110" stroke="#27AE60" stroke-width="0.5" opacity="0.1"/><circle cx="1082" cy="171" r="3" fill="#27AE60" opacity="0.15"/><line x1="960" y1="110" x2="1082" y2="171" stroke="#27AE60" stroke-width="0.5" opacity="0.1"/>

  <!-- Category badge -->
  <rect x="50" y="50" width="10" height="50" rx="5" fill="#27AE60"/>

  <!-- Title -->
  <text x="80" y="80" fill="#ffffff" font-size="26" font-weight="700">OpenAI $122 billion</text>
  <text x="80" y="115" fill="#aaaaaa" font-size="16">funding round announcement</text>

  <!-- Divider -->
  <line x1="80" y1="140" x2="400" y2="140" stroke="#27AE60" stroke-width="2" opacity="0.5"/>

  <!-- Main visual -->
  
            <rect x="200" y="351" width="80" height="79" rx="6" fill="#27AE60" opacity="0.8"/>
            <rect x="330" y="311" width="80" height="119" rx="6" fill="#27AE60" opacity="0.9"/>
            <rect x="460" y="351" width="80" height="79" rx="6" fill="#27AE60" opacity="0.8"/>
            <rect x="590" y="311" width="80" height="119" rx="6" fill="#27AE60" opacity="0.9"/>
            <rect x="720" y="291" width="80" height="139" rx="6" fill="#27AE60" opacity="1.0"/>
            <rect x="850" y="341" width="80" height="89" rx="6" fill="#27AE60" opacity="0.8"/>
        <line x1="180" y1="430" x2="1000" y2="430" stroke="#444" stroke-width="1"/>

  <!-- Footer -->
  <line x1="80" y1="590" x2="1120" y2="590" stroke="#222" stroke-width="0.5"/>
  <text x="600" y="615" text-anchor="middle" fill="#444" font-size="11">DopeLab.Studio — ink.dopelab.studio</text>
</svg>