<svg xmlns="http://www.w3.org/2000/svg" viewBox="0 0 1200 630" font-family="'Kanit', 'Inter', sans-serif">
  <defs>
    <linearGradient id="bg-34" x1="0" y1="0" x2="1200" y2="630" gradientUnits="userSpaceOnUse">
      <stop offset="0%" stop-color="#0a0a0a"/>
      <stop offset="100%" stop-color="#1a1a2e"/>
    </linearGradient>
  </defs>

  <!-- Background -->
  <rect width="1200" height="630" fill="url(#bg-34)"/>

  <!-- Network decoration -->
  <circle cx="954" cy="107" r="3" fill="#FF6B35" opacity="0.15"/><circle cx="1081" cy="170" r="3" fill="#FF6B35" opacity="0.15"/><line x1="954" y1="107" x2="1081" y2="170" stroke="#FF6B35" stroke-width="0.5" opacity="0.1"/><circle cx="972" cy="116" r="3" fill="#FF6B35" opacity="0.15"/><line x1="1081" y1="170" x2="972" y2="116" stroke="#FF6B35" stroke-width="0.5" opacity="0.1"/><circle cx="1034" cy="147" r="3" fill="#FF6B35" opacity="0.15"/><line x1="972" y1="116" x2="1034" y2="147" stroke="#FF6B35" stroke-width="0.5" opacity="0.1"/><circle cx="966" cy="113" r="3" fill="#FF6B35" opacity="0.15"/><line x1="1034" y1="147" x2="966" y2="113" stroke="#FF6B35" stroke-width="0.5" opacity="0.1"/>

  <!-- Category badge -->
  <rect x="50" y="50" width="10" height="50" rx="5" fill="#FF6B35"/>

  <!-- Title -->
  <text x="80" y="80" fill="#ffffff" font-size="26" font-weight="700">DeepSeek Pricing vs Competitors</text>
  <text x="80" y="115" fill="#aaaaaa" font-size="16">Cost Comparison</text>

  <!-- Divider -->
  <line x1="80" y1="140" x2="400" y2="140" stroke="#FF6B35" stroke-width="2" opacity="0.5"/>

  <!-- Main visual -->
  
            <rect x="200" y="336" width="80" height="94" rx="6" fill="#FF6B35" opacity="0.9"/>
            <rect x="330" y="303" width="80" height="127" rx="6" fill="#FF6B35" opacity="1.0"/>
            <rect x="460" y="347" width="80" height="83" rx="6" fill="#FF6B35" opacity="0.8"/>
            <rect x="590" y="369" width="80" height="61" rx="6" fill="#FF6B35" opacity="0.7"/>
            <rect x="720" y="380" width="80" height="50" rx="6" fill="#FF6B35" opacity="0.7"/>
            <rect x="850" y="325" width="80" height="105" rx="6" fill="#FF6B35" opacity="0.9"/>
        <line x1="180" y1="430" x2="1000" y2="430" stroke="#444" stroke-width="1"/>

  <!-- Footer -->
  <line x1="80" y1="590" x2="1120" y2="590" stroke="#222" stroke-width="0.5"/>
  <text x="600" y="615" text-anchor="middle" fill="#444" font-size="11">DopeLab.Studio — ink.dopelab.studio</text>
</svg>