<svg xmlns="http://www.w3.org/2000/svg" viewBox="0 0 1200 630" font-family="'Kanit', 'Inter', sans-serif">
  <defs>
    <linearGradient id="bg-48" x1="0" y1="0" x2="1200" y2="630" gradientUnits="userSpaceOnUse">
      <stop offset="0%" stop-color="#0a0a0a"/>
      <stop offset="100%" stop-color="#1a1a2e"/>
    </linearGradient>
  </defs>

  <!-- Background -->
  <rect width="1200" height="630" fill="url(#bg-48)"/>

  <!-- Network decoration -->
  <circle cx="953" cy="106" r="3" fill="#2B4C7E" opacity="0.15"/><circle cx="981" cy="120" r="3" fill="#2B4C7E" opacity="0.15"/><line x1="953" y1="106" x2="981" y2="120" stroke="#2B4C7E" stroke-width="0.5" opacity="0.1"/><circle cx="960" cy="110" r="3" fill="#2B4C7E" opacity="0.15"/><line x1="981" y1="120" x2="960" y2="110" stroke="#2B4C7E" stroke-width="0.5" opacity="0.1"/><circle cx="982" cy="121" r="3" fill="#2B4C7E" opacity="0.15"/><line x1="960" y1="110" x2="982" y2="121" stroke="#2B4C7E" stroke-width="0.5" opacity="0.1"/><circle cx="1085" cy="172" r="3" fill="#2B4C7E" opacity="0.15"/><line x1="982" y1="121" x2="1085" y2="172" stroke="#2B4C7E" stroke-width="0.5" opacity="0.1"/>

  <!-- Category badge -->
  <rect x="50" y="50" width="10" height="50" rx="5" fill="#2B4C7E"/>

  <!-- Title -->
  <text x="80" y="80" fill="#ffffff" font-size="26" font-weight="700">NVIDIA GTC 2026</text>
  <text x="80" y="115" fill="#aaaaaa" font-size="16">Jensen Huang เปิดตัว OpenClaw Strategy</text>

  <!-- Divider -->
  <line x1="80" y1="140" x2="400" y2="140" stroke="#2B4C7E" stroke-width="2" opacity="0.5"/>

  <!-- Main visual -->
  
            <rect x="250" y="310" width="700" height="38" rx="8" fill="#1e1e3a" stroke="#333" stroke-width="1"/>
            <circle cx="280" cy="329" r="10" fill="#2B4C7E" opacity="0.3"/>
            <text x="280" y="334" text-anchor="middle" fill="#2B4C7E" font-size="12">&#x2714;</text>
            <rect x="305" y="323" width="253" height="10" rx="4" fill="#444"/>
            <rect x="250" y="360" width="700" height="38" rx="8" fill="#1e1e3a" stroke="#333" stroke-width="1"/>
            <circle cx="280" cy="379" r="10" fill="#2B4C7E" opacity="0.3"/>
            <text x="280" y="384" text-anchor="middle" fill="#2B4C7E" font-size="12">&#x2714;</text>
            <rect x="305" y="373" width="226" height="10" rx="4" fill="#444"/>
            <rect x="250" y="410" width="700" height="38" rx="8" fill="#1e1e3a" stroke="#333" stroke-width="1"/>
            <circle cx="280" cy="429" r="10" fill="#2B4C7E" opacity="0.3"/>
            <text x="280" y="434" text-anchor="middle" fill="#2B4C7E" font-size="12">&#x2714;</text>
            <rect x="305" y="423" width="363" height="10" rx="4" fill="#444"/>
            <rect x="250" y="460" width="700" height="38" rx="8" fill="#1e1e3a" stroke="#333" stroke-width="1"/>
            <circle cx="280" cy="479" r="10" fill="#2B4C7E" opacity="0.3"/>
            <text x="280" y="484" text-anchor="middle" fill="#2B4C7E" font-size="12">&#x2714;</text>
            <rect x="305" y="473" width="281" height="10" rx="4" fill="#444"/>

  <!-- Footer -->
  <line x1="80" y1="590" x2="1120" y2="590" stroke="#222" stroke-width="0.5"/>
  <text x="600" y="615" text-anchor="middle" fill="#444" font-size="11">DopeLab.Studio — ink.dopelab.studio</text>
</svg>