<svg xmlns="http://www.w3.org/2000/svg" viewBox="0 0 1200 630" font-family="'Kanit', 'Inter', sans-serif">
  <defs>
    <linearGradient id="bg-17" x1="0" y1="0" x2="1200" y2="630" gradientUnits="userSpaceOnUse">
      <stop offset="0%" stop-color="#0a0a0a"/>
      <stop offset="100%" stop-color="#1a1a2e"/>
    </linearGradient>
  </defs>

  <!-- Background -->
  <rect width="1200" height="630" fill="url(#bg-17)"/>

  <!-- Network decoration -->
  <circle cx="950" cy="105" r="3" fill="#3498db" opacity="0.15"/><circle cx="981" cy="120" r="3" fill="#3498db" opacity="0.15"/><line x1="950" y1="105" x2="981" y2="120" stroke="#3498db" stroke-width="0.5" opacity="0.1"/><circle cx="985" cy="122" r="3" fill="#3498db" opacity="0.15"/><line x1="981" y1="120" x2="985" y2="122" stroke="#3498db" stroke-width="0.5" opacity="0.1"/><circle cx="1085" cy="172" r="3" fill="#3498db" opacity="0.15"/><line x1="985" y1="122" x2="1085" y2="172" stroke="#3498db" stroke-width="0.5" opacity="0.1"/><circle cx="998" cy="129" r="3" fill="#3498db" opacity="0.15"/><line x1="1085" y1="172" x2="998" y2="129" stroke="#3498db" stroke-width="0.5" opacity="0.1"/>

  <!-- Category badge -->
  <rect x="50" y="50" width="10" height="50" rx="5" fill="#3498db"/>

  <!-- Title -->
  <text x="80" y="80" fill="#ffffff" font-size="26" font-weight="700">Starting with AI</text>
  <text x="80" y="115" fill="#aaaaaa" font-size="16">step by step สำหรับร้านอาหารที่เพิ่งเริ่ม</text>

  <!-- Divider -->
  <line x1="80" y1="140" x2="400" y2="140" stroke="#3498db" stroke-width="2" opacity="0.5"/>

  <!-- Main visual -->
  
            <rect x="180" y="340" width="140" height="60" rx="10" fill="#1e1e3a" stroke="#3498db" stroke-width="1.5" opacity="0.9"/>
            <text x="250" y="375" text-anchor="middle" fill="#3498db" font-size="14" font-weight="600">Input</text>
            <line x1="320" y1="370" x2="400" y2="370" stroke="#3498db" stroke-width="1.5" opacity="0.5"/>
            <polygon points="398,365 406,370 398,375" fill="#3498db" opacity="0.5"/>
            <rect x="400" y="340" width="140" height="60" rx="10" fill="#1e1e3a" stroke="#3498db" stroke-width="1.5" opacity="0.9"/>
            <text x="470" y="375" text-anchor="middle" fill="#3498db" font-size="14" font-weight="600">Process</text>
            <line x1="540" y1="370" x2="620" y2="370" stroke="#3498db" stroke-width="1.5" opacity="0.5"/>
            <polygon points="618,365 626,370 618,375" fill="#3498db" opacity="0.5"/>
            <rect x="620" y="340" width="140" height="60" rx="10" fill="#1e1e3a" stroke="#3498db" stroke-width="1.5" opacity="0.9"/>
            <text x="690" y="375" text-anchor="middle" fill="#3498db" font-size="14" font-weight="600">Transform</text>
            <line x1="760" y1="370" x2="840" y2="370" stroke="#3498db" stroke-width="1.5" opacity="0.5"/>
            <polygon points="838,365 846,370 838,375" fill="#3498db" opacity="0.5"/>
            <rect x="840" y="340" width="140" height="60" rx="10" fill="#1e1e3a" stroke="#3498db" stroke-width="1.5" opacity="0.9"/>
            <text x="910" y="375" text-anchor="middle" fill="#3498db" font-size="14" font-weight="600">Output</text>

  <!-- Footer -->
  <line x1="80" y1="590" x2="1120" y2="590" stroke="#222" stroke-width="0.5"/>
  <text x="600" y="615" text-anchor="middle" fill="#444" font-size="11">DopeLab.Studio — ink.dopelab.studio</text>
</svg>