<svg xmlns="http://www.w3.org/2000/svg" viewBox="0 0 1200 630" font-family="'Kanit', 'Inter', sans-serif">
  <defs>
    <linearGradient id="bg-16" x1="0" y1="0" x2="1200" y2="630" gradientUnits="userSpaceOnUse">
      <stop offset="0%" stop-color="#0a0a0a"/>
      <stop offset="100%" stop-color="#1a1a2e"/>
    </linearGradient>
  </defs>

  <!-- Background -->
  <rect width="1200" height="630" fill="url(#bg-16)"/>

  <!-- Network decoration -->
  <circle cx="1087" cy="173" r="3" fill="#3498db" opacity="0.15"/><circle cx="973" cy="116" r="3" fill="#3498db" opacity="0.15"/><line x1="1087" y1="173" x2="973" y2="116" stroke="#3498db" stroke-width="0.5" opacity="0.1"/><circle cx="934" cy="97" r="3" fill="#3498db" opacity="0.15"/><line x1="973" y1="116" x2="934" y2="97" stroke="#3498db" stroke-width="0.5" opacity="0.1"/><circle cx="1054" cy="157" r="3" fill="#3498db" opacity="0.15"/><line x1="934" y1="97" x2="1054" y2="157" stroke="#3498db" stroke-width="0.5" opacity="0.1"/><circle cx="1069" cy="164" r="3" fill="#3498db" opacity="0.15"/><line x1="1054" y1="157" x2="1069" y2="164" stroke="#3498db" stroke-width="0.5" opacity="0.1"/>

  <!-- Category badge -->
  <rect x="50" y="50" width="10" height="50" rx="5" fill="#3498db"/>

  <!-- Title -->
  <text x="80" y="80" fill="#ffffff" font-size="26" font-weight="700">AI ROI Comparison Table</text>
  <text x="80" y="115" fill="#aaaaaa" font-size="16">เปรียบ AI ทุกประเภทสำหรับร้านอาหารไทย</text>

  <!-- Divider -->
  <line x1="80" y1="140" x2="400" y2="140" stroke="#3498db" stroke-width="2" opacity="0.5"/>

  <!-- Main visual -->
  
            <rect x="120" y="300" width="420" height="200" rx="14" fill="#1e1e3a" stroke="#3498db" stroke-width="1.5"/>
            <text x="330" y="335" text-anchor="middle" fill="#3498db" font-size="16" font-weight="600">Option A</text>
            <rect x="660" y="300" width="420" height="200" rx="14" fill="#1e1e3a" stroke="#666" stroke-width="1.5"/>
            <text x="870" y="335" text-anchor="middle" fill="#888" font-size="16" font-weight="600">Option B</text>
            <text x="600" y="410" text-anchor="middle" fill="#555" font-size="24">vs</text>
            <rect x="150" y="360" width="360" height="10" rx="4" fill="#3498db" opacity="0.3"/>
            <rect x="690" y="360" width="360" height="10" rx="4" fill="#555" opacity="0.3"/>
            <rect x="150" y="400" width="360" height="10" rx="4" fill="#3498db" opacity="0.5"/>
            <rect x="690" y="400" width="360" height="10" rx="4" fill="#555" opacity="0.44999999999999996"/>
            <rect x="150" y="440" width="360" height="10" rx="4" fill="#3498db" opacity="0.7"/>
            <rect x="690" y="440" width="360" height="10" rx="4" fill="#555" opacity="0.6"/>

  <!-- Footer -->
  <line x1="80" y1="590" x2="1120" y2="590" stroke="#222" stroke-width="0.5"/>
  <text x="600" y="615" text-anchor="middle" fill="#444" font-size="11">DopeLab.Studio — ink.dopelab.studio</text>
</svg>