<svg xmlns="http://www.w3.org/2000/svg" viewBox="0 0 1200 630" font-family="'Kanit', 'Inter', sans-serif">
  <defs>
    <linearGradient id="bg-15" x1="0" y1="0" x2="1200" y2="630" gradientUnits="userSpaceOnUse">
      <stop offset="0%" stop-color="#0a0a0a"/>
      <stop offset="100%" stop-color="#1a1a2e"/>
    </linearGradient>
  </defs>

  <!-- Background -->
  <rect width="1200" height="630" fill="url(#bg-15)"/>

  <!-- Network decoration -->
  <circle cx="1001" cy="130" r="3" fill="#9b59b6" opacity="0.15"/><circle cx="987" cy="123" r="3" fill="#9b59b6" opacity="0.15"/><line x1="1001" y1="130" x2="987" y2="123" stroke="#9b59b6" stroke-width="0.5" opacity="0.1"/><circle cx="935" cy="97" r="3" fill="#9b59b6" opacity="0.15"/><line x1="987" y1="123" x2="935" y2="97" stroke="#9b59b6" stroke-width="0.5" opacity="0.1"/><circle cx="1029" cy="144" r="3" fill="#9b59b6" opacity="0.15"/><line x1="935" y1="97" x2="1029" y2="144" stroke="#9b59b6" stroke-width="0.5" opacity="0.1"/><circle cx="941" cy="100" r="3" fill="#9b59b6" opacity="0.15"/><line x1="1029" y1="144" x2="941" y2="100" stroke="#9b59b6" stroke-width="0.5" opacity="0.1"/>

  <!-- Category badge -->
  <rect x="50" y="50" width="10" height="50" rx="5" fill="#9b59b6"/>

  <!-- Title -->
  <text x="80" y="80" fill="#ffffff" font-size="26" font-weight="700">Restaurant Robot</text>
  <text x="80" y="115" fill="#aaaaaa" font-size="16">เท่มาก แต่ยังไม่คุ้มสำหรับร้านส่วนใหญ่</text>

  <!-- Divider -->
  <line x1="80" y1="140" x2="400" y2="140" stroke="#9b59b6" stroke-width="2" opacity="0.5"/>

  <!-- Main visual -->
  
            <circle cx="600" cy="380" r="80" fill="none" stroke="#9b59b6" stroke-width="1.5" opacity="0.3"/>
            <circle cx="600" cy="380" r="55" fill="none" stroke="#9b59b6" stroke-width="1" opacity="0.5"/>
            <circle cx="600" cy="380" r="35" fill="#9b59b6" opacity="0.1"/>
            <text x="600" y="395" text-anchor="middle" fill="#9b59b6" font-size="36">&#x1F916;</text>

  <!-- Footer -->
  <line x1="80" y1="590" x2="1120" y2="590" stroke="#222" stroke-width="0.5"/>
  <text x="600" y="615" text-anchor="middle" fill="#444" font-size="11">DopeLab.Studio — ink.dopelab.studio</text>
</svg>