<svg xmlns="http://www.w3.org/2000/svg" viewBox="0 0 1200 630" width="1200" height="630" font-family="'Kanit', sans-serif">
  <defs>
    <linearGradient id="bg6" x1="0" y1="0" x2="1200" y2="630" gradientUnits="userSpaceOnUse">
      <stop offset="0%" stop-color="#0a0a0a"/>
      <stop offset="100%" stop-color="#1a1a2e"/>
    </linearGradient>
    <linearGradient id="goldGrad6" x1="0" y1="0" x2="0" y2="1">
      <stop offset="0%" stop-color="#FFE066"/>
      <stop offset="100%" stop-color="#FFCC00"/>
    </linearGradient>
    <filter id="glow6"><feGaussianBlur stdDeviation="3" result="b"/><feMerge><feMergeNode in="b"/><feMergeNode in="SourceGraphic"/></feMerge></filter>
    <filter id="glowGold6"><feGaussianBlur stdDeviation="5" result="b"/><feMerge><feMergeNode in="b"/><feMergeNode in="SourceGraphic"/></feMerge></filter>
  </defs>

  <!-- Background -->
  <rect width="1200" height="630" fill="url(#bg6)"/>

  <!-- Grid dots -->
  <g opacity="0.03">
    <circle cx="60" cy="60" r="1" fill="#fff"/><circle cx="120" cy="60" r="1" fill="#fff"/><circle cx="180" cy="60" r="1" fill="#fff"/><circle cx="240" cy="60" r="1" fill="#fff"/><circle cx="300" cy="60" r="1" fill="#fff"/><circle cx="360" cy="60" r="1" fill="#fff"/><circle cx="420" cy="60" r="1" fill="#fff"/><circle cx="480" cy="60" r="1" fill="#fff"/><circle cx="540" cy="60" r="1" fill="#fff"/><circle cx="600" cy="60" r="1" fill="#fff"/><circle cx="660" cy="60" r="1" fill="#fff"/><circle cx="720" cy="60" r="1" fill="#fff"/><circle cx="780" cy="60" r="1" fill="#fff"/><circle cx="840" cy="60" r="1" fill="#fff"/><circle cx="900" cy="60" r="1" fill="#fff"/><circle cx="960" cy="60" r="1" fill="#fff"/><circle cx="1020" cy="60" r="1" fill="#fff"/><circle cx="1080" cy="60" r="1" fill="#fff"/><circle cx="1140" cy="60" r="1" fill="#fff"/>
  </g>

  <!-- Max 20x ambient glow (top right) -->
  <ellipse cx="985" cy="340" rx="200" ry="280" fill="rgba(255,204,0,0.04)"/>

  <!-- Header -->
  <text x="600" y="40" text-anchor="middle" font-size="11" fill="#636980" letter-spacing="4">CLAUDE SUBSCRIPTION PLANS</text>
  <text x="600" y="76" text-anchor="middle" font-weight="700" font-size="27" fill="#ffffff">Pro vs Max 5x vs Max 20x — เลือกแบบไหนคุ้ม?</text>
  <text x="600" y="100" text-anchor="middle" font-size="14" fill="#636980">3-tier guide สำหรับ Claude Code users · ราคา vs limit vs use case</text>

  <!-- ══════════════════════════════ -->
  <!-- STAIRCASE STEPS (connecting tops of cards) -->
  <!-- Step 1: Pro top-right (x=380, y=300) → Max 5x top-left (x=425, y=210) -->
  <path d="M 380 300 H 425 V 210" stroke="rgba(255,255,255,0.10)" stroke-width="1.5" fill="none" stroke-dasharray="5,3"/>
  <!-- Step 2: Max 5x top-right (x=770, y=210) → Max 20x top-left (x=820, y=118) -->
  <path d="M 770 210 H 820 V 118" stroke="rgba(255,204,0,0.20)" stroke-width="1.5" fill="none" stroke-dasharray="5,3"/>

  <!-- Upgrade arrows on steps -->
  <text x="402" y="260" text-anchor="middle" font-size="10" fill="#636980">↑ upgrade</text>
  <text x="795" y="168" text-anchor="middle" font-size="10" fill="#FFCC00">↑ upgrade</text>

  <!-- ═══ CARD 1: Pro $20 ═══ -->
  <!-- Card starts at x=45, y=300, w=335, h=245 (bottom=545) -->
  <rect x="45" y="300" width="335" height="245" rx="14" fill="#0f0f1a" stroke="rgba(255,255,255,0.12)" stroke-width="1.5"/>
  <rect x="45" y="300" width="335" height="4" rx="2" fill="#5a87c5"/>
  <!-- Plan badge -->
  <rect x="65" y="316" width="50" height="20" rx="10" fill="rgba(90,135,197,0.2)" stroke="rgba(90,135,197,0.5)" stroke-width="1"/>
  <text x="90" y="331" text-anchor="middle" font-size="10" font-weight="700" fill="#5a87c5">PRO</text>
  <!-- Multiplier badge -->
  <rect x="258" y="316" width="104" height="20" rx="10" fill="rgba(255,255,255,0.04)"/>
  <text x="310" y="331" text-anchor="middle" font-size="10" fill="#636980">5-hour window</text>
  <!-- Price -->
  <text x="65" y="392" font-size="62" font-weight="800" fill="#ffffff">$20</text>
  <text x="65" y="418" font-size="13" fill="#636980">/เดือน</text>
  <!-- Divider -->
  <line x1="65" y1="432" x2="360" y2="432" stroke="rgba(255,255,255,0.06)" stroke-width="1"/>
  <!-- Features -->
  <text x="65" y="452" font-size="12" fill="#c8ccd4">● Sonnet + Haiku access</text>
  <text x="65" y="472" font-size="12" fill="#c8ccd4">● Rolling 5-hour limit</text>
  <text x="65" y="492" font-size="12" fill="#555">● ไม่มี Opus access</text>
  <!-- Best for -->
  <rect x="65" y="506" width="295" height="28" rx="8" fill="rgba(90,135,197,0.08)" stroke="rgba(90,135,197,0.2)" stroke-width="1"/>
  <text x="212" y="525" text-anchor="middle" font-size="12" fill="#5a87c5">✦ ผู้ใช้ทั่วไป · SME · Content creator</text>

  <!-- ═══ CARD 2: Max 5x $100 ═══ -->
  <!-- Card starts at x=425, y=210, w=345, h=335 (bottom=545) -->
  <rect x="425" y="210" width="345" height="335" rx="14" fill="#0f0f1a" stroke="rgba(100,255,218,0.22)" stroke-width="1.5"/>
  <rect x="425" y="210" width="345" height="4" rx="2" fill="#64ffda"/>
  <!-- Plan badge -->
  <rect x="448" y="226" width="68" height="20" rx="10" fill="rgba(100,255,218,0.15)" stroke="rgba(100,255,218,0.4)" stroke-width="1"/>
  <text x="482" y="241" text-anchor="middle" font-size="10" font-weight="700" fill="#64ffda">MAX 5X</text>
  <!-- Multiplier badge -->
  <rect x="577" y="226" width="170" height="20" rx="10" fill="rgba(255,255,255,0.04)"/>
  <text x="662" y="241" text-anchor="middle" font-size="10" fill="#636980">5× usage vs Pro</text>
  <!-- Price -->
  <text x="448" y="318" font-size="62" font-weight="800" fill="#64ffda">$100</text>
  <text x="448" y="344" font-size="13" fill="#636980">/เดือน</text>
  <!-- Divider -->
  <line x1="448" y1="358" x2="752" y2="358" stroke="rgba(100,255,218,0.08)" stroke-width="1"/>
  <!-- Features -->
  <text x="448" y="378" font-size="12" fill="#c8ccd4">● Opus + Sonnet + Haiku</text>
  <text x="448" y="398" font-size="12" fill="#c8ccd4">● 5× usage limit</text>
  <text x="448" y="418" font-size="12" fill="#c8ccd4">● Claude Code heavy use</text>
  <text x="448" y="438" font-size="12" fill="#c8ccd4">● ราคา API estimate: $100-200/mo</text>
  <!-- When to choose box -->
  <rect x="448" y="452" width="302" height="38" rx="8" fill="rgba(100,255,218,0.06)" stroke="rgba(100,255,218,0.18)" stroke-width="1"/>
  <text x="599" y="467" text-anchor="middle" font-size="11" fill="#64ffda">เลือกเมื่อ</text>
  <text x="599" y="484" text-anchor="middle" font-size="11" fill="#64ffda">limit Pro หมดทุกวัน · ต้องการ Opus</text>
  <!-- Best for -->
  <rect x="448" y="498" width="302" height="28" rx="8" fill="rgba(100,255,218,0.08)" stroke="rgba(100,255,218,0.2)" stroke-width="1"/>
  <text x="599" y="517" text-anchor="middle" font-size="12" fill="#64ffda">✦ Power users · Developer · Agency</text>

  <!-- ═══ CARD 3: Max 20x $200 ═══ -->
  <!-- Card starts at x=820, y=118, w=335, h=427 (bottom=545) -->
  <rect x="820" y="118" width="335" height="427" rx="14" fill="#0f0f1a" stroke="rgba(255,204,0,0.30)" stroke-width="1.5"/>
  <rect x="820" y="118" width="335" height="4" rx="2" fill="url(#goldGrad6)"/>
  <!-- "BEST VALUE" top ribbon -->
  <rect x="880" y="110" width="100" height="20" rx="10" fill="#FFCC00"/>
  <text x="930" y="125" text-anchor="middle" font-size="10" font-weight="800" fill="#0a0a0a">BEST FOR DEVS</text>
  <!-- Plan badge -->
  <rect x="843" y="135" width="74" height="20" rx="10" fill="rgba(255,204,0,0.18)" stroke="rgba(255,204,0,0.5)" stroke-width="1"/>
  <text x="880" y="150" text-anchor="middle" font-size="10" font-weight="700" fill="#FFCC00">MAX 20X</text>
  <!-- Multiplier -->
  <rect x="974" y="135" width="162" height="20" rx="10" fill="rgba(255,255,255,0.04)"/>
  <text x="1055" y="150" text-anchor="middle" font-size="10" fill="#636980">20× usage vs Pro</text>
  <!-- Price -->
  <text x="843" y="242" font-size="62" font-weight="800" fill="#FFCC00" filter="url(#glowGold6)">$200</text>
  <text x="843" y="268" font-size="13" fill="#636980">/เดือน</text>
  <!-- Compare Pro -->
  <text x="843" y="290" font-size="11" fill="#636980">= Pro × 10 · Max 5x × 2</text>
  <!-- Divider -->
  <line x1="843" y1="302" x2="1135" y2="302" stroke="rgba(255,204,0,0.10)" stroke-width="1"/>
  <!-- Features -->
  <text x="843" y="322" font-size="12" fill="#c8ccd4">● Opus + Sonnet + Haiku</text>
  <text x="843" y="342" font-size="12" fill="#c8ccd4">● 20× usage limit</text>
  <text x="843" y="362" font-size="12" fill="#c8ccd4">● Claude Code ทั้งวัน (8h+)</text>
  <text x="843" y="382" font-size="12" fill="#c8ccd4">● Multi-instance support</text>
  <text x="843" y="402" font-size="12" fill="#c8ccd4">● ราคา API estimate: $200-400/mo</text>
  <!-- Model pricing mini table -->
  <rect x="843" y="415" width="292" height="72" rx="8" fill="rgba(255,204,0,0.04)" stroke="rgba(255,204,0,0.12)" stroke-width="1"/>
  <text x="843" y="430" font-size="9" fill="#FFCC00" dx="10" dy="5" letter-spacing="0.06em">MODEL PRICING (per 1M tokens)</text>
  <text x="853" y="456" font-size="11" fill="#888">Opus 4.6</text><text x="1125" y="456" text-anchor="end" font-size="11" fill="#c8ccd4">$5 in / $25 out</text>
  <text x="853" y="471" font-size="11" fill="#888">Sonnet 4.6</text><text x="1125" y="471" text-anchor="end" font-size="11" fill="#64ffda">$3 in / $15 out</text>
  <text x="853" y="486" font-size="11" fill="#888">Haiku 4.5</text><text x="1125" y="486" text-anchor="end" font-size="11" fill="#64ffda">$1 in / $5 out</text>
  <!-- Best for -->
  <rect x="843" y="494" width="292" height="28" rx="8" fill="rgba(255,204,0,0.10)" stroke="rgba(255,204,0,0.25)" stroke-width="1"/>
  <text x="989" y="513" text-anchor="middle" font-size="12" font-weight="600" fill="#FFCC00" filter="url(#glow6)">✦ Developer · Agency · Full-time dev</text>

  <!-- ═══ BOTTOM: WHEN TO UPGRADE ═══ -->
  <rect x="45" y="553" width="1110" height="34" rx="8" fill="rgba(255,255,255,0.02)" stroke="rgba(255,255,255,0.05)" stroke-width="1"/>
  <!-- Arrow 1 -->
  <text x="65" y="575" font-size="11" fill="#636980">Pro → Max 5x เมื่อ:</text>
  <text x="190" y="575" font-size="11" fill="#c8ccd4">limit หมดทุกวัน หรือต้องการ Opus</text>
  <!-- Divider -->
  <line x1="600" y1="558" x2="600" y2="582" stroke="rgba(255,255,255,0.06)" stroke-width="1"/>
  <!-- Arrow 2 -->
  <text x="618" y="575" font-size="11" fill="#636980">Max 5x → 20x เมื่อ:</text>
  <text x="755" y="575" font-size="11" fill="#c8ccd4">ใช้ Claude Code ทั้งวัน (8h+/วัน) หรือ bill &gt; $200/mo</text>

  <!-- Footer -->
  <line x1="80" y1="598" x2="1120" y2="598" stroke="#222" stroke-width="0.5"/>
  <text x="600" y="618" text-anchor="middle" font-size="10" fill="#444">DopeLab Studio — ink.dopelab.studio</text>
</svg>
