<svg xmlns="http://www.w3.org/2000/svg" viewBox="0 0 1200 630" font-family="'Kanit', 'Inter', sans-serif">
  <defs>
    <linearGradient id="bg-25" x1="0" y1="0" x2="1200" y2="630" gradientUnits="userSpaceOnUse">
      <stop offset="0%" stop-color="#0a0a0a"/>
      <stop offset="100%" stop-color="#1a1a2e"/>
    </linearGradient>
  </defs>

  <!-- Background -->
  <rect width="1200" height="630" fill="url(#bg-25)"/>

  <!-- Network decoration -->
  <circle cx="1076" cy="168" r="3" fill="#FF6B35" opacity="0.15"/><circle cx="947" cy="103" r="3" fill="#FF6B35" opacity="0.15"/><line x1="1076" y1="168" x2="947" y2="103" stroke="#FF6B35" stroke-width="0.5" opacity="0.1"/><circle cx="905" cy="82" r="3" fill="#FF6B35" opacity="0.15"/><line x1="947" y1="103" x2="905" y2="82" stroke="#FF6B35" stroke-width="0.5" opacity="0.1"/><circle cx="1025" cy="142" r="3" fill="#FF6B35" opacity="0.15"/><line x1="905" y1="82" x2="1025" y2="142" stroke="#FF6B35" stroke-width="0.5" opacity="0.1"/><circle cx="1015" cy="137" r="3" fill="#FF6B35" opacity="0.15"/><line x1="1025" y1="142" x2="1015" y2="137" stroke="#FF6B35" stroke-width="0.5" opacity="0.1"/>

  <!-- Category badge -->
  <rect x="50" y="50" width="10" height="50" rx="5" fill="#FF6B35"/>

  <!-- Title -->
  <text x="80" y="80" fill="#ffffff" font-size="26" font-weight="700">Token Cost Breakdown</text>
  <text x="80" y="115" fill="#aaaaaa" font-size="16">ทำไม input tokens คือ 85-92% ของค่าใช้จ่าย</text>

  <!-- Divider -->
  <line x1="80" y1="140" x2="400" y2="140" stroke="#FF6B35" stroke-width="2" opacity="0.5"/>

  <!-- Main visual -->
  
            <rect x="200" y="334" width="80" height="96" rx="6" fill="#FF6B35" opacity="0.9"/>
            <rect x="330" y="362" width="80" height="68" rx="6" fill="#FF6B35" opacity="0.8"/>
            <rect x="460" y="376" width="80" height="54" rx="6" fill="#FF6B35" opacity="0.7"/>
            <rect x="590" y="383" width="80" height="47" rx="6" fill="#FF6B35" opacity="0.7"/>
            <rect x="720" y="327" width="80" height="103" rx="6" fill="#FF6B35" opacity="0.9"/>
            <rect x="850" y="299" width="80" height="131" rx="6" fill="#FF6B35" opacity="1.0"/>
        <line x1="180" y1="430" x2="1000" y2="430" stroke="#444" stroke-width="1"/>

  <!-- Footer -->
  <line x1="80" y1="590" x2="1120" y2="590" stroke="#222" stroke-width="0.5"/>
  <text x="600" y="615" text-anchor="middle" fill="#444" font-size="11">DopeLab.Studio — ink.dopelab.studio</text>
</svg>