<svg xmlns="http://www.w3.org/2000/svg" viewBox="0 0 1200 630" font-family="'Kanit', 'Inter', sans-serif">
  <defs>
    <linearGradient id="bg-29" x1="0" y1="0" x2="1200" y2="630" gradientUnits="userSpaceOnUse">
      <stop offset="0%" stop-color="#0a0a0a"/>
      <stop offset="100%" stop-color="#1a1a2e"/>
    </linearGradient>
  </defs>

  <!-- Background -->
  <rect width="1200" height="630" fill="url(#bg-29)"/>

  <!-- Network decoration -->
  <circle cx="946" cy="103" r="3" fill="#3498db" opacity="0.15"/><circle cx="955" cy="107" r="3" fill="#3498db" opacity="0.15"/><line x1="946" y1="103" x2="955" y2="107" stroke="#3498db" stroke-width="0.5" opacity="0.1"/><circle cx="981" cy="120" r="3" fill="#3498db" opacity="0.15"/><line x1="955" y1="107" x2="981" y2="120" stroke="#3498db" stroke-width="0.5" opacity="0.1"/><circle cx="1060" cy="160" r="3" fill="#3498db" opacity="0.15"/><line x1="981" y1="120" x2="1060" y2="160" stroke="#3498db" stroke-width="0.5" opacity="0.1"/><circle cx="1095" cy="177" r="3" fill="#3498db" opacity="0.15"/><line x1="1060" y1="160" x2="1095" y2="177" stroke="#3498db" stroke-width="0.5" opacity="0.1"/>

  <!-- Category badge -->
  <rect x="50" y="50" width="10" height="50" rx="5" fill="#3498db"/>

  <!-- Title -->
  <text x="80" y="80" fill="#ffffff" font-size="26" font-weight="700">Claude Plans</text>
  <text x="80" y="115" fill="#aaaaaa" font-size="16">Pro vs Max 5x vs Max 20x เลือกแบบไหนถึงคุ้ม</text>

  <!-- Divider -->
  <line x1="80" y1="140" x2="400" y2="140" stroke="#3498db" stroke-width="2" opacity="0.5"/>

  <!-- Main visual -->
  
            <rect x="250" y="310" width="700" height="38" rx="8" fill="#1e1e3a" stroke="#333" stroke-width="1"/>
            <circle cx="280" cy="329" r="10" fill="#3498db" opacity="0.3"/>
            <text x="280" y="334" text-anchor="middle" fill="#3498db" font-size="12">&#x2714;</text>
            <rect x="305" y="323" width="246" height="10" rx="4" fill="#444"/>
            <rect x="250" y="360" width="700" height="38" rx="8" fill="#1e1e3a" stroke="#333" stroke-width="1"/>
            <circle cx="280" cy="379" r="10" fill="#3498db" opacity="0.3"/>
            <text x="280" y="384" text-anchor="middle" fill="#3498db" font-size="12">&#x2714;</text>
            <rect x="305" y="373" width="223" height="10" rx="4" fill="#444"/>
            <rect x="250" y="410" width="700" height="38" rx="8" fill="#1e1e3a" stroke="#333" stroke-width="1"/>
            <circle cx="280" cy="429" r="10" fill="#3498db" opacity="0.3"/>
            <text x="280" y="434" text-anchor="middle" fill="#3498db" font-size="12">&#x2714;</text>
            <rect x="305" y="423" width="211" height="10" rx="4" fill="#444"/>
            <rect x="250" y="460" width="700" height="38" rx="8" fill="#1e1e3a" stroke="#333" stroke-width="1"/>
            <circle cx="280" cy="479" r="10" fill="#3498db" opacity="0.3"/>
            <text x="280" y="484" text-anchor="middle" fill="#3498db" font-size="12">&#x2714;</text>
            <rect x="305" y="473" width="355" height="10" rx="4" fill="#444"/>

  <!-- Footer -->
  <line x1="80" y1="590" x2="1120" y2="590" stroke="#222" stroke-width="0.5"/>
  <text x="600" y="615" text-anchor="middle" fill="#444" font-size="11">DopeLab.Studio — ink.dopelab.studio</text>
</svg>