<svg xmlns="http://www.w3.org/2000/svg" viewBox="0 0 1200 630" width="1200" height="630" font-family="'Kanit', sans-serif">
  <defs>
    <linearGradient id="bg7" x1="0" y1="0" x2="1200" y2="630" gradientUnits="userSpaceOnUse">
      <stop offset="0%" stop-color="#0a0a0a"/>
      <stop offset="100%" stop-color="#1a1a2e"/>
    </linearGradient>
  </defs>

  <rect width="1200" height="630" fill="url(#bg7)"/>

  <!-- Header -->
  <text x="600" y="38" text-anchor="middle" font-size="13" fill="#636980" letter-spacing="4">10 METHODS SUMMARY</text>
  <text x="600" y="72" text-anchor="middle" font-weight="700" font-size="24" fill="#FFCC00">ประหยัด Token คือ Engineering — ลดได้ 74%</text>

  <!-- Two columns: Web (6) | Code (4) -->
  <!-- Column headers -->
  <rect x="45" y="95" width="545" height="36" rx="8" fill="#FFCC0010"/>
  <text x="318" y="118" text-anchor="middle" font-weight="600" font-size="14" fill="#FFCC00">☁️ Claude Web — 6 วิธีพื้นฐาน</text>

  <rect x="610" y="95" width="545" height="36" rx="8" fill="#64ffda10"/>
  <text x="883" y="118" text-anchor="middle" font-weight="600" font-size="14" fill="#64ffda">⌨️ Claude Code — 4 วิธี Power Users</text>

  <!-- WEB Column — 6 items -->
  <!-- Item 1 -->
  <rect x="45" y="142" width="545" height="58" rx="8" fill="#0f0f1a" stroke="#ffffff06" stroke-width="1"/>
  <rect x="45" y="142" width="4" height="58" rx="2" fill="#FFCC00"/>
  <circle cx="75" cy="171" r="16" fill="#FFCC0015" stroke="#FFCC0030" stroke-width="1"/>
  <text x="75" y="177" text-anchor="middle" font-weight="700" font-size="14" fill="#FFCC00">1</text>
  <text x="102" y="165" font-weight="500" font-size="13" fill="#eef0f6">Edit Prompt แทนส่งใหม่</text>
  <text x="102" y="184" font-size="11" fill="#636980">ไม่ต้อง reload history — ประหยัดทุก round</text>
  <rect x="480" y="155" width="90" height="24" rx="6" fill="#FFCC0015"/>
  <text x="525" y="172" text-anchor="middle" font-size="11" fill="#FFCC00" font-weight="600">ปานกลาง</text>

  <!-- Item 2 -->
  <rect x="45" y="208" width="545" height="58" rx="8" fill="#0f0f1a" stroke="#ffffff06" stroke-width="1"/>
  <rect x="45" y="208" width="4" height="58" rx="2" fill="#FFCC00"/>
  <circle cx="75" cy="237" r="16" fill="#FFCC0015" stroke="#FFCC0030" stroke-width="1"/>
  <text x="75" y="243" text-anchor="middle" font-weight="700" font-size="14" fill="#FFCC00">2</text>
  <text x="102" y="231" font-weight="500" font-size="13" fill="#eef0f6">แชทใหม่ทุก 20 ข้อความ</text>
  <text x="102" y="250" font-size="11" fill="#636980">ขอสรุป → copy → แชทใหม่ วาง context</text>
  <rect x="480" y="221" width="90" height="24" rx="6" fill="#FFCC0015"/>
  <text x="525" y="238" text-anchor="middle" font-size="11" fill="#FFCC00" font-weight="600">ปานกลาง</text>

  <!-- Item 3 -->
  <rect x="45" y="274" width="545" height="58" rx="8" fill="#0f0f1a" stroke="#ffffff06" stroke-width="1"/>
  <rect x="45" y="274" width="4" height="58" rx="2" fill="#FFCC00"/>
  <circle cx="75" cy="303" r="16" fill="#FFCC0015" stroke="#FFCC0030" stroke-width="1"/>
  <text x="75" y="309" text-anchor="middle" font-weight="700" font-size="14" fill="#FFCC00">3</text>
  <text x="102" y="297" font-weight="500" font-size="13" fill="#eef0f6">รวมคำถามไว้ใน 1 ข้อความ</text>
  <text x="102" y="316" font-size="11" fill="#636980">3 คำถาม 1 ข้อความ = โหลด 1 รอบ (ไม่ใช่ 3)</text>
  <rect x="480" y="287" width="90" height="24" rx="6" fill="#FFCC0015"/>
  <text x="525" y="304" text-anchor="middle" font-size="11" fill="#FFCC00" font-weight="600">ปานกลาง</text>

  <!-- Item 4 -->
  <rect x="45" y="340" width="545" height="58" rx="8" fill="#0f0f1a" stroke="#ffffff06" stroke-width="1"/>
  <rect x="45" y="340" width="4" height="58" rx="2" fill="#FFCC00"/>
  <circle cx="75" cy="369" r="16" fill="#FFCC0015" stroke="#FFCC0030" stroke-width="1"/>
  <text x="75" y="375" text-anchor="middle" font-weight="700" font-size="14" fill="#FFCC00">4</text>
  <text x="102" y="363" font-weight="500" font-size="13" fill="#eef0f6">Projects + Cache เอกสารซ้ำ</text>
  <text x="102" y="382" font-size="11" fill="#636980">cache ประหยัด 90% สำหรับ repeated content</text>
  <rect x="480" y="353" width="90" height="24" rx="6" fill="#FFCC0030"/>
  <text x="525" y="370" text-anchor="middle" font-size="11" fill="#FFCC00" font-weight="700">สูง</text>

  <!-- Item 5 -->
  <rect x="45" y="406" width="545" height="58" rx="8" fill="#0f0f1a" stroke="#ffffff06" stroke-width="1"/>
  <rect x="45" y="406" width="4" height="58" rx="2" fill="#FFCC00"/>
  <circle cx="75" cy="435" r="16" fill="#FFCC0015" stroke="#FFCC0030" stroke-width="1"/>
  <text x="75" y="441" text-anchor="middle" font-weight="700" font-size="14" fill="#FFCC00">5</text>
  <text x="102" y="429" font-weight="500" font-size="13" fill="#eef0f6">ตั้ง Memory ครั้งเดียว</text>
  <text x="102" y="448" font-size="11" fill="#636980">ไม่ต้องบอก profile ซ้ำทุกแชท</text>
  <rect x="480" y="419" width="90" height="24" rx="6" fill="#FFCC0015"/>
  <text x="525" y="436" text-anchor="middle" font-size="11" fill="#FFCC00" font-weight="600">ปานกลาง</text>

  <!-- Item 6 -->
  <rect x="45" y="472" width="545" height="58" rx="8" fill="#0f0f1a" stroke="#ffffff06" stroke-width="1"/>
  <rect x="45" y="472" width="4" height="58" rx="2" fill="#FFCC00"/>
  <circle cx="75" cy="501" r="16" fill="#FFCC0015" stroke="#FFCC0030" stroke-width="1"/>
  <text x="75" y="507" text-anchor="middle" font-weight="700" font-size="14" fill="#FFCC00">6</text>
  <text x="102" y="495" font-weight="500" font-size="13" fill="#eef0f6">ปิด Web Search + Extended Thinking</text>
  <text x="102" y="514" font-size="11" fill="#636980">เปิดเฉพาะเมื่อจำเป็น ไม่ใช่ default</text>
  <rect x="480" y="485" width="90" height="24" rx="6" fill="#FFCC0015"/>
  <text x="525" y="502" text-anchor="middle" font-size="11" fill="#FFCC00" font-weight="600">ปานกลาง</text>

  <!-- CODE Column — 4 items -->
  <!-- Item 7 -->
  <rect x="610" y="142" width="545" height="58" rx="8" fill="#0f0f1a" stroke="#ffffff06" stroke-width="1"/>
  <rect x="610" y="142" width="4" height="58" rx="2" fill="#64ffda"/>
  <circle cx="640" cy="171" r="16" fill="#64ffda15" stroke="#64ffda30" stroke-width="1"/>
  <text x="640" y="177" text-anchor="middle" font-weight="700" font-size="14" fill="#64ffda">7</text>
  <text x="667" y="165" font-weight="500" font-size="13" fill="#eef0f6">CLAUDE.md กระชับ — ทุกบรรทัดคือเงิน</text>
  <text x="667" y="184" font-size="11" fill="#636980">3,200 → 800 tokens = -75% system prompt cost</text>
  <rect x="1045" y="155" width="90" height="24" rx="6" fill="#64ffda30"/>
  <text x="1090" y="172" text-anchor="middle" font-size="11" fill="#64ffda" font-weight="700">สูงมาก</text>

  <!-- Item 8 -->
  <rect x="610" y="208" width="545" height="58" rx="8" fill="#0f0f1a" stroke="#ffffff06" stroke-width="1"/>
  <rect x="610" y="208" width="4" height="58" rx="2" fill="#64ffda"/>
  <circle cx="640" cy="237" r="16" fill="#64ffda15" stroke="#64ffda30" stroke-width="1"/>
  <text x="640" y="243" text-anchor="middle" font-weight="700" font-size="14" fill="#64ffda">8</text>
  <text x="667" y="231" font-weight="500" font-size="13" fill="#eef0f6">/clear บ่อยๆ เมื่อเปลี่ยนงาน</text>
  <text x="667" y="250" font-size="11" fill="#636980">-30% unnecessary context ทันที</text>
  <rect x="1045" y="221" width="90" height="24" rx="6" fill="#64ffda30"/>
  <text x="1090" y="238" text-anchor="middle" font-size="11" fill="#64ffda" font-weight="700">สูง</text>

  <!-- Item 9 -->
  <rect x="610" y="274" width="545" height="58" rx="8" fill="#0f0f1a" stroke="#ffffff06" stroke-width="1"/>
  <rect x="610" y="274" width="4" height="58" rx="2" fill="#64ffda"/>
  <circle cx="640" cy="303" r="16" fill="#64ffda15" stroke="#64ffda30" stroke-width="1"/>
  <text x="640" y="309" text-anchor="middle" font-weight="700" font-size="14" fill="#64ffda">9</text>
  <text x="667" y="297" font-weight="500" font-size="13" fill="#eef0f6">Sonnet First, Opus Only เมื่อจำเป็น</text>
  <text x="667" y="316" font-size="11" fill="#636980">-40% model cost — output เท่าเดิม 90% ของงาน</text>
  <rect x="1045" y="287" width="90" height="24" rx="6" fill="#64ffda30"/>
  <text x="1090" y="304" text-anchor="middle" font-size="11" fill="#64ffda" font-weight="700">สูง</text>

  <!-- Item 10 -->
  <rect x="610" y="340" width="545" height="58" rx="8" fill="#0f0f1a" stroke="#ffffff06" stroke-width="1"/>
  <rect x="610" y="340" width="4" height="58" rx="2" fill="#64ffda"/>
  <circle cx="640" cy="369" r="16" fill="#64ffda15" stroke="#64ffda30" stroke-width="1"/>
  <text x="640" y="375" text-anchor="middle" font-weight="700" font-size="14" fill="#64ffda">10</text>
  <text x="670" y="363" font-weight="500" font-size="13" fill="#eef0f6">MCP Servers — โหลดเฉพาะที่ใช้จริง</text>
  <text x="670" y="382" font-size="11" fill="#636980">8 → 4 servers = -20% metadata overhead</text>
  <rect x="1045" y="353" width="90" height="24" rx="6" fill="#64ffda20"/>
  <text x="1090" y="370" text-anchor="middle" font-size="11" fill="#64ffda" font-weight="600">ปานกลาง</text>

  <!-- Code column: Result box -->
  <rect x="610" y="420" width="545" height="110" rx="12" fill="#0f0f1a" stroke="#FFCC0030" stroke-width="1.5"/>
  <text x="883" y="452" text-anchor="middle" font-weight="600" font-size="15" fill="#eef0f6">ผลลัพธ์จริง: ใช้ทั้ง 10 วิธี</text>
  <!-- Before/After -->
  <text x="730" y="485" text-anchor="middle" font-size="13" fill="#636980">Before</text>
  <text x="730" y="510" text-anchor="middle" font-weight="700" font-size="24" fill="#ff6b6b">$340</text>
  <!-- Arrow -->
  <text x="833" y="500" text-anchor="middle" font-size="22" fill="#636980">→</text>
  <!-- After -->
  <text x="940" y="485" text-anchor="middle" font-size="13" fill="#636980">After</text>
  <text x="940" y="510" text-anchor="middle" font-weight="700" font-size="24" fill="#64ffda">$89</text>
  <!-- Savings -->
  <rect x="1020" y="480" width="110" height="36" rx="8" fill="#64ffda15" stroke="#64ffda30" stroke-width="1"/>
  <text x="1075" y="503" text-anchor="middle" font-weight="700" font-size="16" fill="#64ffda">-74%</text>

  <!-- Bottom tagline -->
  <text x="600" y="572" text-anchor="middle" font-size="14" fill="#c8ccd4">ไม่มีวิธีไหนที่ต้องจ่ายเพิ่ม — แค่เปลี่ยนนิสัยการใช้งาน</text>

  <!-- Footer -->
  <line x1="80" y1="598" x2="1120" y2="598" stroke="#222" stroke-width="0.5"/>
  <text x="600" y="618" text-anchor="middle" font-size="10" fill="#444">DopeLab Studio — ink.dopelab.studio</text>
</svg>
