<svg xmlns="http://www.w3.org/2000/svg" viewBox="0 0 1200 630" font-family="'Kanit', 'Inter', sans-serif">
  <defs>
    <linearGradient id="bg-4" x1="0" y1="0" x2="1200" y2="630" gradientUnits="userSpaceOnUse">
      <stop offset="0%" stop-color="#0a0a0a"/>
      <stop offset="100%" stop-color="#1a1a2e"/>
    </linearGradient>
  </defs>

  <!-- Background -->
  <rect width="1200" height="630" fill="url(#bg-4)"/>

  <!-- Network decoration -->
  <circle cx="991" cy="125" r="3" fill="#FF6B35" opacity="0.15"/><circle cx="986" cy="123" r="3" fill="#FF6B35" opacity="0.15"/><line x1="991" y1="125" x2="986" y2="123" stroke="#FF6B35" stroke-width="0.5" opacity="0.1"/><circle cx="910" cy="85" r="3" fill="#FF6B35" opacity="0.15"/><line x1="986" y1="123" x2="910" y2="85" stroke="#FF6B35" stroke-width="0.5" opacity="0.1"/><circle cx="926" cy="93" r="3" fill="#FF6B35" opacity="0.15"/><line x1="910" y1="85" x2="926" y2="93" stroke="#FF6B35" stroke-width="0.5" opacity="0.1"/><circle cx="978" cy="119" r="3" fill="#FF6B35" opacity="0.15"/><line x1="926" y1="93" x2="978" y2="119" stroke="#FF6B35" stroke-width="0.5" opacity="0.1"/>

  <!-- Category badge -->
  <rect x="50" y="50" width="10" height="50" rx="5" fill="#FF6B35"/>

  <!-- Title -->
  <text x="80" y="80" fill="#ffffff" font-size="26" font-weight="700">Cost breakdown for</text>
  <text x="80" y="115" fill="#aaaaaa" font-size="16">22-video AI production</text>

  <!-- Divider -->
  <line x1="80" y1="140" x2="400" y2="140" stroke="#FF6B35" stroke-width="2" opacity="0.5"/>

  <!-- Main visual -->
  
            <rect x="200" y="379" width="80" height="51" rx="6" fill="#FF6B35" opacity="0.7"/>
            <rect x="330" y="325" width="80" height="105" rx="6" fill="#FF6B35" opacity="0.9"/>
            <rect x="460" y="298" width="80" height="132" rx="6" fill="#FF6B35" opacity="1.0"/>
            <rect x="590" y="344" width="80" height="86" rx="6" fill="#FF6B35" opacity="0.8"/>
            <rect x="720" y="307" width="80" height="123" rx="6" fill="#FF6B35" opacity="0.9"/>
            <rect x="850" y="289" width="80" height="141" rx="6" fill="#FF6B35" opacity="1.0"/>
        <line x1="180" y1="430" x2="1000" y2="430" stroke="#444" stroke-width="1"/>

  <!-- Footer -->
  <line x1="80" y1="590" x2="1120" y2="590" stroke="#222" stroke-width="0.5"/>
  <text x="600" y="615" text-anchor="middle" fill="#444" font-size="11">DopeLab.Studio — ink.dopelab.studio</text>
</svg>