<svg xmlns="http://www.w3.org/2000/svg" viewBox="0 0 1200 630" font-family="'Kanit', 'Inter', sans-serif">
  <defs>
    <linearGradient id="bg-2" x1="0" y1="0" x2="1200" y2="630" gradientUnits="userSpaceOnUse">
      <stop offset="0%" stop-color="#0a0a0a"/>
      <stop offset="100%" stop-color="#1a1a2e"/>
    </linearGradient>
  </defs>

  <!-- Background -->
  <rect width="1200" height="630" fill="url(#bg-2)"/>

  <!-- Network decoration -->
  <circle cx="1020" cy="140" r="3" fill="#27AE60" opacity="0.15"/><circle cx="1065" cy="162" r="3" fill="#27AE60" opacity="0.15"/><line x1="1020" y1="140" x2="1065" y2="162" stroke="#27AE60" stroke-width="0.5" opacity="0.1"/><circle cx="1020" cy="140" r="3" fill="#27AE60" opacity="0.15"/><line x1="1065" y1="162" x2="1020" y2="140" stroke="#27AE60" stroke-width="0.5" opacity="0.1"/><circle cx="965" cy="112" r="3" fill="#27AE60" opacity="0.15"/><line x1="1020" y1="140" x2="965" y2="112" stroke="#27AE60" stroke-width="0.5" opacity="0.1"/><circle cx="1008" cy="134" r="3" fill="#27AE60" opacity="0.15"/><line x1="965" y1="112" x2="1008" y2="134" stroke="#27AE60" stroke-width="0.5" opacity="0.1"/>

  <!-- Category badge -->
  <rect x="50" y="50" width="10" height="50" rx="5" fill="#27AE60"/>

  <!-- Title -->
  <text x="80" y="80" fill="#ffffff" font-size="26" font-weight="700">14-day production</text>
  <text x="80" y="115" fill="#aaaaaa" font-size="16">calendar overview</text>

  <!-- Divider -->
  <line x1="80" y1="140" x2="400" y2="140" stroke="#27AE60" stroke-width="2" opacity="0.5"/>

  <!-- Main visual -->
  
            <rect x="180" y="300" width="240" height="70" rx="10" fill="#1e1e3a" stroke="#333" stroke-width="1"/>
            <rect x="190" y="315" width="40" height="40" rx="8" fill="#27AE60" opacity="0.2"/>
            <rect x="245" y="320" width="150" height="10" rx="4" fill="#444"/>
            <rect x="245" y="338" width="100" height="8" rx="4" fill="#333"/>
            <rect x="460" y="300" width="240" height="70" rx="10" fill="#1e1e3a" stroke="#333" stroke-width="1"/>
            <rect x="470" y="315" width="40" height="40" rx="8" fill="#27AE60" opacity="0.2"/>
            <rect x="525" y="320" width="150" height="10" rx="4" fill="#444"/>
            <rect x="525" y="338" width="100" height="8" rx="4" fill="#333"/>
            <rect x="740" y="300" width="240" height="70" rx="10" fill="#1e1e3a" stroke="#333" stroke-width="1"/>
            <rect x="750" y="315" width="40" height="40" rx="8" fill="#27AE60" opacity="0.2"/>
            <rect x="805" y="320" width="150" height="10" rx="4" fill="#444"/>
            <rect x="805" y="338" width="100" height="8" rx="4" fill="#333"/>
            <rect x="180" y="390" width="240" height="70" rx="10" fill="#1e1e3a" stroke="#333" stroke-width="1"/>
            <rect x="190" y="405" width="40" height="40" rx="8" fill="#27AE60" opacity="0.2"/>
            <rect x="245" y="410" width="150" height="10" rx="4" fill="#444"/>
            <rect x="245" y="428" width="100" height="8" rx="4" fill="#333"/>
            <rect x="460" y="390" width="240" height="70" rx="10" fill="#1e1e3a" stroke="#333" stroke-width="1"/>
            <rect x="470" y="405" width="40" height="40" rx="8" fill="#27AE60" opacity="0.2"/>
            <rect x="525" y="410" width="150" height="10" rx="4" fill="#444"/>
            <rect x="525" y="428" width="100" height="8" rx="4" fill="#333"/>
            <rect x="740" y="390" width="240" height="70" rx="10" fill="#1e1e3a" stroke="#333" stroke-width="1"/>
            <rect x="750" y="405" width="40" height="40" rx="8" fill="#27AE60" opacity="0.2"/>
            <rect x="805" y="410" width="150" height="10" rx="4" fill="#444"/>
            <rect x="805" y="428" width="100" height="8" rx="4" fill="#333"/>

  <!-- Footer -->
  <line x1="80" y1="590" x2="1120" y2="590" stroke="#222" stroke-width="0.5"/>
  <text x="600" y="615" text-anchor="middle" fill="#444" font-size="11">DopeLab.Studio — ink.dopelab.studio</text>
</svg>