<svg xmlns="http://www.w3.org/2000/svg" viewBox="0 0 1200 630" font-family="'Kanit', 'Inter', sans-serif">
  <defs>
    <linearGradient id="bg-3" x1="0" y1="0" x2="1200" y2="630" gradientUnits="userSpaceOnUse">
      <stop offset="0%" stop-color="#0a0a0a"/>
      <stop offset="100%" stop-color="#1a1a2e"/>
    </linearGradient>
  </defs>

  <!-- Background -->
  <rect width="1200" height="630" fill="url(#bg-3)"/>

  <!-- Network decoration -->
  <circle cx="996" cy="128" r="3" fill="#FFCC00" opacity="0.15"/><circle cx="1062" cy="161" r="3" fill="#FFCC00" opacity="0.15"/><line x1="996" y1="128" x2="1062" y2="161" stroke="#FFCC00" stroke-width="0.5" opacity="0.1"/><circle cx="970" cy="115" r="3" fill="#FFCC00" opacity="0.15"/><line x1="1062" y1="161" x2="970" y2="115" stroke="#FFCC00" stroke-width="0.5" opacity="0.1"/><circle cx="1083" cy="171" r="3" fill="#FFCC00" opacity="0.15"/><line x1="970" y1="115" x2="1083" y2="171" stroke="#FFCC00" stroke-width="0.5" opacity="0.1"/><circle cx="1022" cy="141" r="3" fill="#FFCC00" opacity="0.15"/><line x1="1083" y1="171" x2="1022" y2="141" stroke="#FFCC00" stroke-width="0.5" opacity="0.1"/>

  <!-- Category badge -->
  <rect x="50" y="50" width="10" height="50" rx="5" fill="#FFCC00"/>

  <!-- Title -->
  <text x="80" y="80" fill="#ffffff" font-size="26" font-weight="700">Lessons learned from</text>
  <text x="80" y="115" fill="#aaaaaa" font-size="16">22-video production batch</text>

  <!-- Divider -->
  <line x1="80" y1="140" x2="400" y2="140" stroke="#FFCC00" stroke-width="2" opacity="0.5"/>

  <!-- Main visual -->
  
            <rect x="250" y="310" width="700" height="38" rx="8" fill="#1e1e3a" stroke="#333" stroke-width="1"/>
            <circle cx="280" cy="329" r="10" fill="#FFCC00" opacity="0.3"/>
            <text x="280" y="334" text-anchor="middle" fill="#FFCC00" font-size="12">&#x2714;</text>
            <rect x="305" y="323" width="396" height="10" rx="4" fill="#444"/>
            <rect x="250" y="360" width="700" height="38" rx="8" fill="#1e1e3a" stroke="#333" stroke-width="1"/>
            <circle cx="280" cy="379" r="10" fill="#FFCC00" opacity="0.3"/>
            <text x="280" y="384" text-anchor="middle" fill="#FFCC00" font-size="12">&#x2714;</text>
            <rect x="305" y="373" width="448" height="10" rx="4" fill="#444"/>
            <rect x="250" y="410" width="700" height="38" rx="8" fill="#1e1e3a" stroke="#333" stroke-width="1"/>
            <circle cx="280" cy="429" r="10" fill="#FFCC00" opacity="0.3"/>
            <text x="280" y="434" text-anchor="middle" fill="#FFCC00" font-size="12">&#x2714;</text>
            <rect x="305" y="423" width="324" height="10" rx="4" fill="#444"/>
            <rect x="250" y="460" width="700" height="38" rx="8" fill="#1e1e3a" stroke="#333" stroke-width="1"/>
            <circle cx="280" cy="479" r="10" fill="#FFCC00" opacity="0.3"/>
            <text x="280" y="484" text-anchor="middle" fill="#FFCC00" font-size="12">&#x2714;</text>
            <rect x="305" y="473" width="262" height="10" rx="4" fill="#444"/>

  <!-- Footer -->
  <line x1="80" y1="590" x2="1120" y2="590" stroke="#222" stroke-width="0.5"/>
  <text x="600" y="615" text-anchor="middle" fill="#444" font-size="11">DopeLab.Studio — ink.dopelab.studio</text>
</svg>